<svg id="Layer_1" style="enable-background:new 0 0 375.7 109.6;" version="1.1" viewBox="0 0 375.7 109.6" x="0px" xml:space="preserve" xmlns="http://www.w3.org/2000/svg" xmlns:xlink="http://www.w3.org/1999/xlink" y="0px">
 <style type="text/css">
  .st0{fill:#EE2722;}
 </style>
 <g id="surface1">
  <path class="st0" d="M30.6,28.2H0v-28h94.9v28H64.3v81.3H30.6V28.2z">
  </path>
  <path class="st0" d="M100.2,0.2h92.2v28h-58.5v13.6h58.5v26h-58.5v13.6h58.5v28h-92.2V0.2z">
  </path>
  <path class="st0" d="M231.7,81.5h13.2c21,0,24.1-17,24.1-27.3c0-6.9-2.2-26-26.5-26h-10.7V81.5z M198,0.2h55.3
		c36.4,0,49.3,27,49.3,54.5c0,33.6-17.8,54.8-55.9,54.8H198V0.2z">
  </path>
  <path class="st0" d="M351,67.4l-10.3-17l-10,17H306L329.5,33L306.9,0h24.7l9.1,16.3L350.2,0h24.7l-22.6,33l23.4,34.5H351z">
  </path>
 </g>
</svg>